<svg width="508" height="224" viewBox="0 0 508 224" fill="none" xmlns="http://www.w3.org/2000/svg">
<path d="M147.792 95.104H146.512C144.293 95.104 142.16 94.8907 140.112 94.464C138.064 94.0373 136.229 93.2693 134.608 92.16C133.072 91.0507 131.792 89.5147 130.768 87.552C129.829 85.5893 129.36 83.0293 129.36 79.872V17.536C129.36 14.464 129.829 11.9467 130.768 9.984C131.707 8.02133 132.944 6.48533 134.48 5.376C136.016 4.18133 137.765 3.37067 139.728 2.944C141.691 2.432 143.696 2.176 145.744 2.176H147.792V95.104ZM150.48 41.856H161.872C161.872 43.8187 161.701 45.6107 161.36 47.232C161.104 48.8533 160.549 50.304 159.696 51.584C158.928 52.7787 157.861 53.7173 156.496 54.4C155.131 55.0827 153.381 55.424 151.248 55.424H150.48V41.856ZM175.824 82.816C175.824 84.2667 175.568 85.7173 175.056 87.168C174.544 88.6187 173.733 89.9413 172.624 91.136C171.515 92.2453 170.149 93.184 168.528 93.952C166.907 94.72 164.987 95.104 162.768 95.104C161.147 95.104 159.568 94.848 158.032 94.336C156.496 93.7387 155.131 92.928 153.936 91.904C152.827 90.88 151.888 89.6853 151.12 88.32C150.437 86.9547 150.096 85.4187 150.096 83.712C150.096 83.0293 150.096 82.432 150.096 81.92C150.181 81.3227 150.352 80.6827 150.608 80C151.717 81.024 153.083 81.536 154.704 81.536C155.984 81.536 157.051 81.152 157.904 80.384C158.757 79.5307 159.184 78.2933 159.184 76.672V70.4C159.867 70.2293 160.72 70.144 161.744 70.144C162.939 70.144 164.347 70.3147 165.968 70.656C167.589 70.912 169.125 71.5093 170.576 72.448C172.027 73.3867 173.264 74.7093 174.288 76.416C175.312 78.0373 175.824 80.1707 175.824 82.816ZM175.824 14.336C175.824 17.0667 175.312 19.2427 174.288 20.864C173.264 22.4853 172.027 23.7653 170.576 24.704C169.125 25.6427 167.589 26.2827 165.968 26.624C164.347 26.88 162.939 27.008 161.744 27.008C160.72 27.008 159.867 26.9227 159.184 26.752V20.864C159.184 19.1573 158.757 17.8773 157.904 17.024C157.136 16.0853 156.069 15.616 154.704 15.616C153.083 15.616 151.717 16.128 150.608 17.152C150.352 16.4693 150.181 15.872 150.096 15.36C150.096 14.7627 150.096 14.1227 150.096 13.44C150.096 12.416 150.309 11.264 150.736 9.984C151.248 8.61867 151.973 7.38133 152.912 6.272C153.936 5.07734 155.216 4.096 156.752 3.328C158.373 2.47467 160.293 2.048 162.512 2.048C164.304 2.048 166.011 2.34666 167.632 2.944C169.253 3.54133 170.661 4.39466 171.856 5.504C173.051 6.61333 173.989 7.936 174.672 9.472C175.44 10.9227 175.824 12.544 175.824 14.336ZM201.997 95.104H200.717C198.754 95.104 196.834 94.8907 194.957 94.464C193.08 93.952 191.373 93.1413 189.837 92.032C188.386 90.8373 187.192 89.3013 186.253 87.424C185.314 85.5467 184.845 83.2427 184.845 80.512V46.08C184.845 41.3867 185.954 37.5467 188.173 34.56C190.477 31.5733 194.189 30.08 199.309 30.08C202.722 30.08 205.538 30.976 207.757 32.768C209.976 34.4747 211.085 37.248 211.085 41.088C211.085 42.368 210.914 43.3067 210.573 43.904C209.378 42.88 208.098 42.368 206.733 42.368C204.856 42.368 203.576 43.008 202.893 44.288C202.296 45.568 201.997 46.9333 201.997 48.384V95.104ZM213.389 30.208C213.816 30.1227 214.242 30.08 214.669 30.08H215.949C220.557 30.08 224.141 31.2747 226.701 33.664C229.261 35.968 230.541 39.296 230.541 43.648V50.688C230.541 56.4907 229.09 60.8 226.189 63.616C223.288 66.432 219.746 67.84 215.565 67.84H214.669C211.426 67.6693 208.781 66.6027 206.733 64.64C204.77 62.592 203.789 60.16 203.789 57.344C203.789 56.9173 203.789 56.5333 203.789 56.192C203.874 55.8507 204.045 55.3387 204.301 54.656C204.984 55.3387 205.581 55.8507 206.093 56.192C206.605 56.5333 207.458 56.704 208.653 56.704C210.616 56.704 211.896 56.0213 212.493 54.656C213.09 53.2053 213.389 51.5413 213.389 49.664V30.208ZM230.029 82.688C230.029 85.0773 229.602 87.0827 228.749 88.704C227.981 90.24 226.957 91.52 225.677 92.544C224.397 93.4827 222.989 94.1653 221.453 94.592C219.917 94.9333 218.424 95.104 216.973 95.104C212.621 95.104 209.549 94.0373 207.757 91.904C205.965 89.7707 205.069 87.3813 205.069 84.736C205.069 84.3093 205.069 83.7973 205.069 83.2C205.154 82.6027 205.368 81.9627 205.709 81.28C206.818 82.304 208.098 82.816 209.549 82.816C211.597 82.6453 212.792 81.9627 213.133 80.768C213.474 79.5733 213.645 78.08 213.645 76.288V71.552C214.925 71.2107 216.461 71.04 218.253 71.04C220.472 71.04 222.306 71.3813 223.757 72.064C225.293 72.7467 226.53 73.6427 227.469 74.752C228.408 75.8613 229.048 77.1413 229.389 78.592C229.816 79.9573 230.029 81.3227 230.029 82.688ZM257.342 63.104H256.19C254.227 63.104 252.265 62.8907 250.302 62.464C248.425 61.952 246.718 61.1413 245.182 60.032C243.731 58.8373 242.537 57.3013 241.598 55.424C240.659 53.5467 240.19 51.2427 240.19 48.512V45.184C240.19 42.112 240.702 39.5947 241.726 37.632C242.75 35.6693 244.073 34.1333 245.694 33.024C247.315 31.9147 249.15 31.1467 251.198 30.72C253.246 30.2933 255.294 30.08 257.342 30.08V63.104ZM268.222 62.08H269.374C271.337 62.08 273.257 62.336 275.134 62.848C277.097 63.2747 278.803 64.0853 280.254 65.28C281.79 66.3893 283.027 67.8827 283.966 69.76C284.905 71.6373 285.374 73.9413 285.374 76.672V80C285.374 83.072 284.862 85.5893 283.838 87.552C282.814 89.5147 281.491 91.0507 279.87 92.16C278.249 93.2693 276.414 94.0373 274.366 94.464C272.318 94.8907 270.27 95.104 268.222 95.104V62.08ZM284.862 41.344C284.862 44.0747 284.35 46.2507 283.326 47.872C282.302 49.4933 281.065 50.7733 279.614 51.712C278.163 52.6507 276.627 53.2907 275.006 53.632C273.385 53.888 271.977 54.016 270.782 54.016C269.758 54.016 268.905 53.9307 268.222 53.76V47.872C268.222 46.08 267.795 44.7573 266.942 43.904C266.089 43.0507 265.022 42.624 263.742 42.624C262.121 42.624 260.755 43.136 259.646 44.16C259.39 43.4773 259.219 42.88 259.134 42.368C259.134 41.7707 259.134 41.1307 259.134 40.448C259.134 39.424 259.305 38.272 259.646 36.992C259.987 35.6267 260.627 34.3893 261.566 33.28C262.505 32.0853 263.785 31.104 265.406 30.336C267.027 29.4827 269.075 29.056 271.55 29.056C273.854 29.056 275.817 29.44 277.438 30.208C279.145 30.8907 280.51 31.8293 281.534 33.024C282.643 34.2187 283.454 35.5413 283.966 36.992C284.563 38.4427 284.862 39.8933 284.862 41.344ZM240.83 82.816C240.83 80.1707 241.342 78.0373 242.366 76.416C243.39 74.7093 244.627 73.3867 246.078 72.448C247.529 71.5093 249.065 70.912 250.686 70.656C252.307 70.3147 253.715 70.144 254.91 70.144C255.934 70.144 256.787 70.2293 257.47 70.4V76.288C257.47 78.08 257.897 79.4027 258.75 80.256C259.603 81.1093 260.67 81.536 261.95 81.536C263.486 81.536 264.851 81.024 266.046 80C266.302 80.6827 266.43 81.3227 266.43 81.92C266.515 82.432 266.558 83.0293 266.558 83.712C266.558 84.736 266.345 85.9307 265.918 87.296C265.577 88.576 264.894 89.8133 263.87 91.008C262.931 92.1173 261.651 93.0987 260.03 93.952C258.494 94.72 256.531 95.104 254.142 95.104C251.838 95.104 249.833 94.7627 248.126 94.08C246.505 93.312 245.139 92.3307 244.03 91.136C243.006 89.9413 242.195 88.6187 241.598 87.168C241.086 85.7173 240.83 84.2667 240.83 82.816ZM312.747 75.52C312.747 76.3733 312.747 77.2693 312.747 78.208C312.832 79.1467 313.003 80 313.259 80.768C313.6 81.536 314.07 82.176 314.667 82.688C315.264 83.2 316.118 83.456 317.227 83.456C318.592 83.456 319.616 83.1147 320.299 82.432C321.067 81.664 321.622 81.024 321.963 80.512C322.134 81.024 322.262 81.792 322.347 82.816C322.518 83.84 322.603 84.6933 322.603 85.376C322.603 88.6187 321.494 91.0507 319.275 92.672C317.142 94.2933 314.283 95.104 310.699 95.104C306.006 95.104 302.294 93.6533 299.563 90.752C296.918 87.8507 295.595 83.072 295.595 76.416V17.664C295.595 15.5307 295.851 13.5253 296.363 11.648C296.96 9.77067 297.856 8.14933 299.051 6.784C300.246 5.33333 301.782 4.224 303.659 3.456C305.622 2.60267 307.968 2.176 310.699 2.176C311.04 2.176 311.382 2.21867 311.723 2.304C312.064 2.304 312.406 2.304 312.747 2.304V75.52ZM314.923 30.72H315.179C315.35 30.72 315.734 30.72 316.331 30.72C316.928 30.6347 317.867 30.592 319.147 30.592H324.907C324.992 30.848 325.035 31.488 325.035 32.512C325.035 35.7547 324.267 38.3147 322.731 40.192C321.195 41.984 318.592 42.88 314.923 42.88V30.72ZM331.83 10.368C331.83 7.46666 332.854 5.03467 334.902 3.072C336.95 1.024 339.382 0 342.198 0C345.014 0 347.403 1.024 349.366 3.072C351.414 5.03467 352.438 7.46666 352.438 10.368C352.438 13.2693 351.414 15.7013 349.366 17.664C347.403 19.6267 345.014 20.608 342.198 20.608C339.382 20.608 336.95 19.6267 334.902 17.664C332.854 15.7013 331.83 13.2693 331.83 10.368ZM333.75 30.08H335.158C339.595 30.08 343.307 31.2747 346.294 33.664C349.366 36.0533 350.902 39.8507 350.902 45.056V95.104H350.134C348.171 95.104 346.209 94.848 344.246 94.336C342.369 93.824 340.619 93.0133 338.998 91.904C337.462 90.7093 336.182 89.216 335.158 87.424C334.219 85.5467 333.75 83.2427 333.75 80.512V30.08Z" fill="black"/>
<path d="M-8.10623e-06 130.176H2.04799C4.09599 130.176 6.10133 130.432 8.06399 130.944C10.0267 131.371 11.776 132.181 13.312 133.376C14.848 134.485 16.0853 136.021 17.024 137.984C17.9627 139.947 18.432 142.464 18.432 145.536V207.872C18.432 211.029 17.92 213.589 16.896 215.552C15.9573 217.515 14.6773 219.051 13.056 220.16C11.52 221.269 9.68533 222.037 7.55199 222.464C5.50399 222.891 3.41333 223.104 1.27999 223.104H-8.10623e-06V130.176ZM43.776 223.104H42.496C40.2773 223.104 38.0587 222.891 35.84 222.464C33.7067 222.037 31.744 221.269 29.952 220.16C28.2453 219.051 26.8373 217.515 25.728 215.552C24.6187 213.589 24.064 211.029 24.064 207.872V176.896H26.112C28.2453 176.896 30.3787 177.152 32.512 177.664C34.6453 178.091 36.5227 178.901 38.144 180.096C39.8507 181.205 41.216 182.741 42.24 184.704C43.264 186.667 43.776 189.184 43.776 192.256V223.104ZM45.056 158.208C45.056 163.328 43.9893 167.509 41.856 170.752C39.7227 173.909 36.3093 175.488 31.616 175.488C29.9093 175.488 28.3733 175.232 27.008 174.72C25.6427 174.123 24.4907 173.397 23.552 172.544C22.6133 171.691 21.888 170.709 21.376 169.6C20.864 168.491 20.608 167.424 20.608 166.4C20.608 165.376 20.6507 164.565 20.736 163.968C20.8213 163.371 20.9067 162.859 20.992 162.432C21.4187 162.944 21.8027 163.328 22.144 163.584C22.5707 163.84 23.1253 163.968 23.808 163.968C25.0027 163.883 25.728 163.413 25.984 162.56C26.24 161.621 26.368 160.512 26.368 159.232V130.304H28.032C29.824 130.304 31.7013 130.475 33.664 130.816C35.6267 131.157 37.4613 131.883 39.168 132.992C40.8747 134.016 42.2827 135.595 43.392 137.728C44.5013 139.776 45.056 142.549 45.056 146.048V158.208ZM72.497 203.136C72.497 204.16 72.5397 205.141 72.625 206.08C72.7957 207.019 73.0517 207.872 73.393 208.64C73.8197 209.323 74.3743 209.92 75.057 210.432C75.825 210.859 76.849 211.072 78.129 211.072C78.8117 211.072 79.4943 210.987 80.177 210.816C80.945 210.56 81.6277 210.176 82.225 209.664C82.5663 210.347 82.7797 211.029 82.865 211.712C82.9503 212.309 82.993 212.949 82.993 213.632C82.993 216.363 81.841 218.624 79.537 220.416C77.233 222.208 74.4597 223.104 71.217 223.104C66.097 223.104 62.1717 221.739 59.441 219.008C56.7103 216.277 55.345 212.864 55.345 208.768V173.184C55.345 170.368 55.857 168.021 56.881 166.144C57.9903 164.181 59.3557 162.603 60.977 161.408C62.6837 160.213 64.5183 159.36 66.481 158.848C68.529 158.336 70.5343 158.08 72.497 158.08V203.136ZM101.681 208C101.681 210.987 101.126 213.461 100.017 215.424C98.993 217.301 97.6277 218.837 95.921 220.032C94.2997 221.141 92.465 221.952 90.417 222.464C88.369 222.891 86.4063 223.104 84.529 223.104V178.048C84.529 177.024 84.4437 176.043 84.273 175.104C84.1877 174.165 83.9317 173.355 83.505 172.672C83.1637 171.904 82.609 171.307 81.841 170.88C81.1583 170.368 80.177 170.112 78.897 170.112C78.2143 170.112 77.489 170.24 76.721 170.496C76.0383 170.667 75.3983 171.008 74.801 171.52C74.4597 170.837 74.2463 170.197 74.161 169.6C74.0757 168.917 74.033 168.235 74.033 167.552C74.033 164.821 75.185 162.56 77.489 160.768C79.793 158.976 82.5663 158.08 85.809 158.08C90.929 158.08 94.8543 159.403 97.585 162.048C100.316 164.608 101.681 168.32 101.681 173.184V208ZM112.58 138.368C112.58 135.467 113.604 133.035 115.652 131.072C117.7 129.024 120.132 128 122.948 128C125.764 128 128.153 129.024 130.116 131.072C132.164 133.035 133.188 135.467 133.188 138.368C133.188 141.269 132.164 143.701 130.116 145.664C128.153 147.627 125.764 148.608 122.948 148.608C120.132 148.608 117.7 147.627 115.652 145.664C113.604 143.701 112.58 141.269 112.58 138.368ZM114.5 158.08H115.908C120.345 158.08 124.057 159.275 127.044 161.664C130.116 164.053 131.652 167.851 131.652 173.056V223.104H130.884C128.921 223.104 126.959 222.848 124.996 222.336C123.119 221.824 121.369 221.013 119.748 219.904C118.212 218.709 116.932 217.216 115.908 215.424C114.969 213.547 114.5 211.243 114.5 208.512V158.08ZM173.904 130.176H175.44C177.573 130.176 179.579 130.432 181.456 130.944C183.419 131.456 185.083 132.309 186.448 133.504C187.899 134.699 189.008 136.363 189.776 138.496C190.629 140.544 191.056 143.147 191.056 146.304V209.28C191.056 211.328 190.629 213.205 189.776 214.912C189.008 216.619 187.899 218.069 186.448 219.264C185.083 220.459 183.419 221.397 181.456 222.08C179.579 222.763 177.531 223.104 175.312 223.104H173.904V130.176ZM144.72 172.16C144.72 168.064 146.085 164.693 148.816 162.048C151.547 159.403 155.472 158.08 160.592 158.08C163.835 158.08 166.608 158.976 168.912 160.768C171.216 162.56 172.368 164.821 172.368 167.552C172.368 168.235 172.325 168.917 172.24 169.6C172.155 170.197 171.941 170.837 171.6 171.52C170.405 170.581 169.04 170.112 167.504 170.112H166.992C165.029 170.283 163.664 171.008 162.896 172.288C162.213 173.568 161.872 175.147 161.872 177.024V202.752C161.872 205.568 162.384 207.659 163.408 209.024C164.432 210.389 165.797 211.072 167.504 211.072C169.04 211.072 170.363 210.603 171.472 209.664C172.069 210.859 172.368 212.181 172.368 213.632C172.368 216.363 171.216 218.624 168.912 220.416C166.608 222.208 163.835 223.104 160.592 223.104C155.472 223.104 151.547 221.781 148.816 219.136C146.085 216.405 144.72 212.096 144.72 206.208V172.16ZM219.747 202.88C219.747 203.904 219.79 204.885 219.875 205.824C220.046 206.763 220.302 207.616 220.643 208.384C221.07 209.067 221.624 209.664 222.307 210.176C223.075 210.603 224.099 210.816 225.379 210.816C226.062 210.816 226.744 210.731 227.427 210.56C228.195 210.304 228.878 209.92 229.475 209.408C229.816 210.091 230.03 210.773 230.115 211.456C230.2 212.053 230.243 212.693 230.243 213.376C230.243 216.107 229.134 218.411 226.915 220.288C224.696 222.165 221.667 223.104 217.827 223.104C213.219 223.104 209.507 221.739 206.691 219.008C203.96 216.277 202.595 212.096 202.595 206.464V158.208H203.363C208.483 158.208 212.494 159.445 215.395 161.92C218.296 164.309 219.747 168.192 219.747 173.568V202.88ZM248.931 222.848H247.523C243.086 222.848 239.331 221.696 236.259 219.392C233.272 217.003 231.779 213.163 231.779 207.872V158.208H232.547C234.424 158.208 236.344 158.464 238.307 158.976C240.27 159.488 242.019 160.341 243.555 161.536C245.176 162.645 246.456 164.139 247.395 166.016C248.419 167.893 248.931 170.155 248.931 172.8V222.848ZM260.47 130.176H261.878C266.315 130.176 270.027 131.371 273.014 133.76C276.086 136.149 277.622 139.947 277.622 145.152V223.104H276.854C274.891 223.104 272.929 222.848 270.966 222.336C269.089 221.824 267.339 221.013 265.718 219.904C264.182 218.709 262.902 217.216 261.878 215.424C260.939 213.547 260.47 211.243 260.47 208.512V130.176ZM318.279 178.048C318.279 177.024 318.194 176.043 318.023 175.104C317.938 174.165 317.682 173.355 317.255 172.672C316.914 171.904 316.359 171.307 315.591 170.88C314.908 170.368 313.927 170.112 312.647 170.112C311.964 170.112 311.239 170.24 310.471 170.496C309.788 170.667 309.148 171.008 308.551 171.52C308.21 170.837 307.996 170.197 307.911 169.6C307.826 168.917 307.783 168.235 307.783 167.552C307.783 164.821 308.935 162.56 311.239 160.768C313.543 158.976 316.316 158.08 319.559 158.08C324.679 158.08 328.604 159.403 331.335 162.048C334.066 164.608 335.431 168.32 335.431 173.184V223.104C333.468 223.104 331.463 222.891 329.415 222.464C327.452 221.952 325.618 221.141 323.911 220.032C322.29 218.837 320.924 217.301 319.815 215.424C318.791 213.461 318.279 210.987 318.279 208V178.048ZM306.247 203.136C306.247 204.16 306.29 205.141 306.375 206.08C306.546 207.019 306.802 207.872 307.143 208.64C307.57 209.323 308.124 209.92 308.807 210.432C309.575 210.859 310.599 211.072 311.879 211.072C312.562 211.072 313.244 210.987 313.927 210.816C314.695 210.56 315.378 210.176 315.975 209.664C316.316 210.347 316.53 211.029 316.615 211.712C316.7 212.309 316.743 212.949 316.743 213.632C316.743 216.363 315.591 218.624 313.287 220.416C310.983 222.208 308.21 223.104 304.967 223.104C299.847 223.104 295.922 221.739 293.191 219.008C290.46 216.277 289.095 212.864 289.095 208.768V173.184C289.095 170.368 289.607 168.021 290.631 166.144C291.74 164.181 293.106 162.603 294.727 161.408C296.434 160.213 298.268 159.36 300.231 158.848C302.279 158.336 304.284 158.08 306.247 158.08V203.136ZM364.122 202.88C364.122 203.904 364.165 204.885 364.25 205.824C364.421 206.763 364.677 207.616 365.018 208.384C365.445 209.067 365.999 209.664 366.682 210.176C367.45 210.603 368.474 210.816 369.754 210.816C370.437 210.816 371.119 210.731 371.802 210.56C372.57 210.304 373.253 209.92 373.85 209.408C374.191 210.091 374.405 210.773 374.49 211.456C374.575 212.053 374.618 212.693 374.618 213.376C374.618 216.107 373.509 218.411 371.29 220.288C369.071 222.165 366.042 223.104 362.202 223.104C357.594 223.104 353.882 221.739 351.066 219.008C348.335 216.277 346.97 212.096 346.97 206.464V158.208H347.738C352.858 158.208 356.869 159.445 359.77 161.92C362.671 164.309 364.122 168.192 364.122 173.568V202.88ZM393.306 222.848H391.898C387.461 222.848 383.706 221.696 380.634 219.392C377.647 217.003 376.154 213.163 376.154 207.872V158.208H376.922C378.799 158.208 380.719 158.464 382.682 158.976C384.645 159.488 386.394 160.341 387.93 161.536C389.551 162.645 390.831 164.139 391.77 166.016C392.794 167.893 393.306 170.155 393.306 172.8V222.848ZM404.845 130.176H406.253C410.69 130.176 414.402 131.371 417.389 133.76C420.461 136.149 421.997 139.947 421.997 145.152V223.104H421.229C419.266 223.104 417.304 222.848 415.341 222.336C413.464 221.824 411.714 221.013 410.093 219.904C408.557 218.709 407.277 217.216 406.253 215.424C405.314 213.547 404.845 211.243 404.845 208.512V130.176ZM432.83 138.368C432.83 135.467 433.854 133.035 435.902 131.072C437.95 129.024 440.382 128 443.198 128C446.014 128 448.403 129.024 450.366 131.072C452.414 133.035 453.438 135.467 453.438 138.368C453.438 141.269 452.414 143.701 450.366 145.664C448.403 147.627 446.014 148.608 443.198 148.608C440.382 148.608 437.95 147.627 435.902 145.664C433.854 143.701 432.83 141.269 432.83 138.368ZM434.75 158.08H436.158C440.595 158.08 444.307 159.275 447.294 161.664C450.366 164.053 451.902 167.851 451.902 173.056V223.104H451.134C449.171 223.104 447.209 222.848 445.246 222.336C443.369 221.824 441.619 221.013 439.998 219.904C438.462 218.709 437.182 217.216 436.158 215.424C435.219 213.547 434.75 211.243 434.75 208.512V158.08ZM487.37 187.904C489.759 187.904 492.106 188.245 494.41 188.928C496.714 189.525 498.719 190.507 500.426 191.872C502.133 193.237 503.498 195.029 504.522 197.248C505.631 199.381 506.186 201.984 506.186 205.056V224C504.053 224 501.877 223.659 499.658 222.976C497.439 222.208 495.391 221.141 493.514 219.776C491.722 218.411 490.229 216.747 489.034 214.784C487.925 212.736 487.37 210.432 487.37 207.872V187.904ZM490.186 155.52C491.295 155.52 492.831 155.733 494.794 156.16C496.757 156.501 498.634 157.227 500.426 158.336C502.303 159.445 503.925 160.981 505.29 162.944C506.655 164.907 507.338 167.467 507.338 170.624C507.338 172.672 507.082 174.635 506.57 176.512C506.143 178.389 505.461 180.053 504.522 181.504C503.583 182.869 502.303 183.979 500.682 184.832C499.146 185.685 497.311 186.112 495.178 186.112C491.679 186.112 489.119 185.045 487.498 182.912C485.962 180.693 485.194 178.133 485.194 175.232V173.824C485.535 174.251 485.791 174.592 485.962 174.848C486.218 175.019 486.687 175.104 487.37 175.104C488.565 175.104 489.333 174.549 489.674 173.44C490.015 172.245 490.186 170.496 490.186 168.192V155.52ZM464.97 130.176H466.378C470.815 130.176 474.527 131.371 477.514 133.76C480.586 136.149 482.122 139.947 482.122 145.152V223.104C481.781 223.104 481.482 223.104 481.226 223.104C480.97 223.189 480.671 223.232 480.33 223.232C478.453 223.232 476.575 222.976 474.698 222.464C472.906 221.952 471.285 221.099 469.834 219.904C468.383 218.709 467.189 217.173 466.25 215.296C465.397 213.333 464.97 210.944 464.97 208.128V130.176Z" fill="#0072CE"/>
</svg>
